<svg xmlns="http://www.w3.org/2000/svg" xmlns:xlink="http://www.w3.org/1999/xlink" width="500" zoomAndPan="magnify" viewBox="0 0 375 374.999991" height="500" preserveAspectRatio="xMidYMid meet" version="1.0"><defs><g/><clipPath id="f377d83a61"><path d="M 49.226562 70.023438 L 222.484375 70.023438 L 222.484375 243.285156 L 49.226562 243.285156 Z M 49.226562 70.023438 " clip-rule="nonzero"/></clipPath><clipPath id="2f40516543"><path d="M 83.726562 70.023438 L 187.984375 70.023438 C 207.039062 70.023438 222.484375 85.46875 222.484375 104.523438 L 222.484375 208.785156 C 222.484375 227.839844 207.039062 243.285156 187.984375 243.285156 L 83.726562 243.285156 C 64.671875 243.285156 49.226562 227.839844 49.226562 208.785156 L 49.226562 104.523438 C 49.226562 85.46875 64.671875 70.023438 83.726562 70.023438 Z M 83.726562 70.023438 " clip-rule="nonzero"/></clipPath><clipPath id="8efa7e5a02"><path d="M 0.226562 0.0234375 L 173.484375 0.0234375 L 173.484375 173.285156 L 0.226562 173.285156 Z M 0.226562 0.0234375 " clip-rule="nonzero"/></clipPath><clipPath id="17abac5b76"><path d="M 34.726562 0.0234375 L 138.984375 0.0234375 C 158.039062 0.0234375 173.484375 15.46875 173.484375 34.523438 L 173.484375 138.785156 C 173.484375 157.839844 158.039062 173.285156 138.984375 173.285156 L 34.726562 173.285156 C 15.671875 173.285156 0.226562 157.839844 0.226562 138.785156 L 0.226562 34.523438 C 0.226562 15.46875 15.671875 0.0234375 34.726562 0.0234375 Z M 34.726562 0.0234375 " clip-rule="nonzero"/></clipPath><clipPath id="fc4ede0982"><rect x="0" width="174" y="0" height="174"/></clipPath><clipPath id="b5d273e8a0"><path d="M 152.515625 6.699219 L 325.773438 6.699219 L 325.773438 179.957031 L 152.515625 179.957031 Z M 152.515625 6.699219 " clip-rule="nonzero"/></clipPath><clipPath id="f76e812800"><path d="M 187.015625 6.699219 L 291.273438 6.699219 C 310.328125 6.699219 325.773438 22.144531 325.773438 41.199219 L 325.773438 145.457031 C 325.773438 164.511719 310.328125 179.957031 291.273438 179.957031 L 187.015625 179.957031 C 167.960938 179.957031 152.515625 164.511719 152.515625 145.457031 L 152.515625 41.199219 C 152.515625 22.144531 167.960938 6.699219 187.015625 6.699219 Z M 187.015625 6.699219 " clip-rule="nonzero"/></clipPath><clipPath id="7d9a7b4bfe"><path d="M 0.515625 0.699219 L 173.773438 0.699219 L 173.773438 173.957031 L 0.515625 173.957031 Z M 0.515625 0.699219 " clip-rule="nonzero"/></clipPath><clipPath id="fc42d4f09e"><path d="M 35.015625 0.699219 L 139.273438 0.699219 C 158.328125 0.699219 173.773438 16.144531 173.773438 35.199219 L 173.773438 139.457031 C 173.773438 158.511719 158.328125 173.957031 139.273438 173.957031 L 35.015625 173.957031 C 15.960938 173.957031 0.515625 158.511719 0.515625 139.457031 L 0.515625 35.199219 C 0.515625 16.144531 15.960938 0.699219 35.015625 0.699219 Z M 35.015625 0.699219 " clip-rule="nonzero"/></clipPath><clipPath id="54a1ca838c"><rect x="0" width="174" y="0" height="174"/></clipPath><clipPath id="4874550fe4"><path d="M 118.363281 55.855469 L 256.636719 55.855469 L 256.636719 194.128906 L 118.363281 194.128906 Z M 118.363281 55.855469 " clip-rule="nonzero"/></clipPath><clipPath id="f4b7225b85"><path d="M 187.5 55.855469 C 149.316406 55.855469 118.363281 86.808594 118.363281 124.992188 C 118.363281 163.175781 149.316406 194.128906 187.5 194.128906 C 225.683594 194.128906 256.636719 163.175781 256.636719 124.992188 C 256.636719 86.808594 225.683594 55.855469 187.5 55.855469 Z M 187.5 55.855469 " clip-rule="nonzero"/></clipPath><clipPath id="06bf4825d3"><path d="M 0.363281 0.855469 L 138.636719 0.855469 L 138.636719 139.128906 L 0.363281 139.128906 Z M 0.363281 0.855469 " clip-rule="nonzero"/></clipPath><clipPath id="049e3612bc"><path d="M 69.5 0.855469 C 31.316406 0.855469 0.363281 31.808594 0.363281 69.992188 C 0.363281 108.175781 31.316406 139.128906 69.5 139.128906 C 107.683594 139.128906 138.636719 108.175781 138.636719 69.992188 C 138.636719 31.808594 107.683594 0.855469 69.5 0.855469 Z M 69.5 0.855469 " clip-rule="nonzero"/></clipPath><clipPath id="8a18af9973"><rect x="0" width="139" y="0" height="140"/></clipPath><clipPath id="eeaa387795"><path d="M 146.054688 92.515625 L 229 92.515625 L 229 157.765625 L 146.054688 157.765625 Z M 146.054688 92.515625 " clip-rule="nonzero"/></clipPath></defs><g clip-path="url(#f377d83a61)"><g clip-path="url(#2f40516543)"><g transform="matrix(1, 0, 0, 1, 49, 70)"><g clip-path="url(#fc4ede0982)"><g clip-path="url(#8efa7e5a02)"><g clip-path="url(#17abac5b76)"><path fill="#caf1f5" d="M 0.226562 0.0234375 L 173.484375 0.0234375 L 173.484375 173.285156 L 0.226562 173.285156 Z M 0.226562 0.0234375 " fill-opacity="1" fill-rule="nonzero"/></g></g></g></g></g></g><g clip-path="url(#b5d273e8a0)"><g clip-path="url(#f76e812800)"><g transform="matrix(1, 0, 0, 1, 152, 6)"><g clip-path="url(#54a1ca838c)"><g clip-path="url(#7d9a7b4bfe)"><g clip-path="url(#fc42d4f09e)"><path fill="#caf1f5" d="M 0.515625 0.699219 L 173.773438 0.699219 L 173.773438 173.957031 L 0.515625 173.957031 Z M 0.515625 0.699219 " fill-opacity="1" fill-rule="nonzero"/></g></g></g></g></g></g><g clip-path="url(#4874550fe4)"><g clip-path="url(#f4b7225b85)"><g transform="matrix(1, 0, 0, 1, 118, 55)"><g clip-path="url(#8a18af9973)"><g clip-path="url(#06bf4825d3)"><g clip-path="url(#049e3612bc)"><path fill="#053345" d="M 0.363281 0.855469 L 138.636719 0.855469 L 138.636719 139.128906 L 0.363281 139.128906 Z M 0.363281 0.855469 " fill-opacity="1" fill-rule="nonzero"/></g></g></g></g></g></g><g clip-path="url(#eeaa387795)"><path fill="#caf1f5" d="M 225.289062 94.859375 L 224.777344 94.472656 C 223.109375 93.128906 221.058594 92.550781 219.136719 92.742188 C 217.082031 92.933594 215.226562 93.832031 213.878906 95.433594 L 196.570312 115.820312 L 186.3125 128.191406 L 178.8125 137.230469 L 173.683594 131.78125 L 170.800781 128.769531 L 160.671875 118.191406 C 159.199219 116.652344 157.273438 115.882812 155.222656 115.753906 C 153.300781 115.628906 151.25 116.460938 149.773438 117.871094 L 149.261719 118.382812 C 146.121094 121.269531 146.054688 126.269531 148.941406 129.347656 L 158.941406 139.859375 L 161.824219 143 L 173.363281 155.117188 C 174.710938 156.460938 176.503906 157.359375 178.238281 157.421875 C 178.363281 157.421875 178.363281 157.421875 178.429688 157.421875 C 178.558594 157.421875 178.621094 157.421875 178.8125 157.421875 C 178.8125 157.421875 178.8125 157.421875 178.941406 157.421875 C 179.261719 157.421875 179.519531 157.421875 179.902344 157.421875 C 181.953125 157.230469 183.8125 156.332031 185.160156 154.730469 L 202.339844 134.347656 L 209.070312 126.203125 L 226.25 105.820312 C 228.941406 102.550781 228.558594 97.679688 225.289062 94.859375 Z M 225.289062 94.859375 " fill-opacity="1" fill-rule="nonzero"/></g><g fill="#caf1f5" fill-opacity="1"><g transform="translate(2.214848, 346.366002)"><g><path d="M 31.453125 -48.046875 L 31.453125 0 L 19.453125 0 L 19.453125 -48.046875 L 0.9375 -48.046875 L 0.9375 -57.328125 L 50 -57.328125 L 50 -48.046875 Z M 31.453125 -48.046875 "/></g></g></g><g fill="#caf1f5" fill-opacity="1"><g transform="translate(48.519437, 346.366002)"><g><path d="M 5.8125 0 L 5.8125 -33.6875 C 5.8125 -36.101562 5.773438 -38.117188 5.703125 -39.734375 C 5.640625 -41.347656 5.570312 -42.78125 5.5 -44.03125 L 16.390625 -44.03125 C 16.472656 -43.539062 16.582031 -42.050781 16.71875 -39.5625 C 16.851562 -37.082031 16.921875 -35.4375 16.921875 -34.625 L 17.09375 -34.625 C 18.195312 -37.71875 19.179688 -39.894531 20.046875 -41.15625 C 20.921875 -42.414062 21.953125 -43.347656 23.140625 -43.953125 C 24.335938 -44.566406 25.832031 -44.875 27.625 -44.875 C 29.09375 -44.875 30.273438 -44.671875 31.171875 -44.265625 L 31.171875 -34.703125 C 29.328125 -35.109375 27.695312 -35.3125 26.28125 -35.3125 C 23.4375 -35.3125 21.21875 -34.160156 19.625 -31.859375 C 18.039062 -29.554688 17.25 -26.140625 17.25 -21.609375 L 17.25 0 Z M 5.8125 0 "/></g></g></g><g fill="#caf1f5" fill-opacity="1"><g transform="translate(80.948947, 346.366002)"><g><path d="M 15.984375 0.8125 C 11.734375 0.8125 8.410156 -0.34375 6.015625 -2.65625 C 3.628906 -4.976562 2.4375 -8.242188 2.4375 -12.453125 C 2.4375 -17.003906 3.921875 -20.472656 6.890625 -22.859375 C 9.867188 -25.253906 14.175781 -26.476562 19.8125 -26.53125 L 29.296875 -26.6875 L 29.296875 -28.921875 C 29.296875 -31.796875 28.789062 -33.929688 27.78125 -35.328125 C 26.78125 -36.734375 25.140625 -37.4375 22.859375 -37.4375 C 20.742188 -37.4375 19.191406 -36.953125 18.203125 -35.984375 C 17.210938 -35.023438 16.597656 -33.429688 16.359375 -31.203125 L 4.4375 -31.78125 C 5.164062 -36.0625 7.125 -39.304688 10.3125 -41.515625 C 13.5 -43.734375 17.847656 -44.84375 23.359375 -44.84375 C 28.921875 -44.84375 33.207031 -43.472656 36.21875 -40.734375 C 39.226562 -37.992188 40.734375 -34.097656 40.734375 -29.046875 L 40.734375 -13.015625 C 40.734375 -10.546875 41.007812 -8.84375 41.5625 -7.90625 C 42.113281 -6.976562 43.039062 -6.515625 44.34375 -6.515625 C 45.21875 -6.515625 46.0625 -6.59375 46.875 -6.75 L 46.875 -0.5625 C 46.195312 -0.40625 45.585938 -0.257812 45.046875 -0.125 C 44.503906 0.0078125 43.957031 0.117188 43.40625 0.203125 C 42.863281 0.285156 42.285156 0.351562 41.671875 0.40625 C 41.066406 0.457031 40.359375 0.484375 39.546875 0.484375 C 36.671875 0.484375 34.546875 -0.21875 33.171875 -1.625 C 31.804688 -3.039062 30.988281 -5.117188 30.71875 -7.859375 L 30.46875 -7.859375 C 27.269531 -2.078125 22.441406 0.8125 15.984375 0.8125 Z M 29.296875 -20.390625 L 23.4375 -20.296875 C 20.78125 -20.191406 18.894531 -19.898438 17.78125 -19.421875 C 16.664062 -18.953125 15.816406 -18.226562 15.234375 -17.25 C 14.648438 -16.269531 14.359375 -14.96875 14.359375 -13.34375 C 14.359375 -11.257812 14.835938 -9.707031 15.796875 -8.6875 C 16.765625 -7.664062 18.050781 -7.15625 19.65625 -7.15625 C 21.445312 -7.15625 23.078125 -7.644531 24.546875 -8.625 C 26.023438 -9.601562 27.1875 -10.953125 28.03125 -12.671875 C 28.875 -14.398438 29.296875 -16.222656 29.296875 -18.140625 Z M 29.296875 -20.390625 "/></g></g></g><g fill="#caf1f5" fill-opacity="1"><g transform="translate(127.294254, 346.366002)"><g><path d="M 24.171875 0.8125 C 17.492188 0.8125 12.335938 -1.171875 8.703125 -5.140625 C 5.066406 -9.117188 3.25 -14.660156 3.25 -21.765625 C 3.25 -29.035156 5.078125 -34.695312 8.734375 -38.75 C 12.398438 -42.8125 17.597656 -44.84375 24.328125 -44.84375 C 29.515625 -44.84375 33.800781 -43.539062 37.1875 -40.9375 C 40.582031 -38.332031 42.710938 -34.738281 43.578125 -30.15625 L 32.0625 -29.578125 C 31.738281 -31.828125 30.925781 -33.625 29.625 -34.96875 C 28.320312 -36.3125 26.476562 -36.984375 24.09375 -36.984375 C 18.207031 -36.984375 15.265625 -32.0625 15.265625 -22.21875 C 15.265625 -12.070312 18.257812 -7 24.25 -7 C 26.414062 -7 28.234375 -7.679688 29.703125 -9.046875 C 31.171875 -10.421875 32.078125 -12.460938 32.421875 -15.171875 L 43.90625 -14.640625 C 43.5 -11.628906 42.421875 -8.941406 40.671875 -6.578125 C 38.921875 -4.222656 36.617188 -2.398438 33.765625 -1.109375 C 30.921875 0.171875 27.722656 0.8125 24.171875 0.8125 Z M 24.171875 0.8125 "/></g></g></g><g fill="#caf1f5" fill-opacity="1"><g transform="translate(173.639561, 346.366002)"><g><path d="M 33.9375 0 L 22.171875 -19.9375 L 17.25 -16.515625 L 17.25 0 L 5.8125 0 L 5.8125 -60.375 L 17.25 -60.375 L 17.25 -25.796875 L 32.953125 -44.03125 L 45.25 -44.03125 L 29.78125 -26.859375 L 46.421875 0 Z M 33.9375 0 "/></g></g></g><g fill="#caf1f5" fill-opacity="1"><g transform="translate(219.996088, 346.366002)"><g><path d="M 45.609375 0 L 45.609375 -26.5625 L 14.609375 -26.5625 L 14.609375 0 L 6.828125 0 L 6.828125 -57.328125 L 14.609375 -57.328125 L 14.609375 -33.078125 L 45.609375 -33.078125 L 45.609375 -57.328125 L 53.375 -57.328125 L 53.375 0 Z M 45.609375 0 "/></g></g></g><g fill="#caf1f5" fill-opacity="1"><g transform="translate(280.175813, 346.366002)"><g><path d="M 5.578125 -53.375 L 5.578125 -60.375 L 12.890625 -60.375 L 12.890625 -53.375 Z M 5.578125 0 L 5.578125 -44.03125 L 12.890625 -44.03125 L 12.890625 0 Z M 5.578125 0 "/></g></g></g><g fill="#caf1f5" fill-opacity="1"><g transform="translate(298.689526, 346.366002)"><g><path d="M 5.78125 0 L 5.78125 -33.765625 C 5.78125 -36.859375 5.695312 -40.28125 5.53125 -44.03125 L 12.453125 -44.03125 C 12.671875 -39.03125 12.78125 -36.03125 12.78125 -35.03125 L 12.9375 -35.03125 C 14.101562 -38.800781 15.445312 -41.378906 16.96875 -42.765625 C 18.488281 -44.148438 20.628906 -44.84375 23.390625 -44.84375 C 24.367188 -44.84375 25.359375 -44.707031 26.359375 -44.4375 L 26.359375 -37.71875 C 25.390625 -37.988281 24.085938 -38.125 22.453125 -38.125 C 19.421875 -38.125 17.101562 -36.8125 15.5 -34.1875 C 13.894531 -31.570312 13.09375 -27.828125 13.09375 -22.953125 L 13.09375 0 Z M 5.78125 0 "/></g></g></g><g fill="#caf1f5" fill-opacity="1"><g transform="translate(326.439741, 346.366002)"><g><path d="M 11.234375 -20.46875 C 11.234375 -15.414062 12.273438 -11.519531 14.359375 -8.78125 C 16.453125 -6.039062 19.503906 -4.671875 23.515625 -4.671875 C 26.691406 -4.671875 29.234375 -5.304688 31.140625 -6.578125 C 33.054688 -7.859375 34.351562 -9.476562 35.03125 -11.4375 L 41.453125 -9.609375 C 38.828125 -2.660156 32.847656 0.8125 23.515625 0.8125 C 17.003906 0.8125 12.046875 -1.125 8.640625 -5 C 5.242188 -8.882812 3.546875 -14.648438 3.546875 -22.296875 C 3.546875 -29.566406 5.242188 -35.140625 8.640625 -39.015625 C 12.046875 -42.898438 16.910156 -44.84375 23.234375 -44.84375 C 36.171875 -44.84375 42.640625 -37.039062 42.640625 -21.4375 L 42.640625 -20.46875 Z M 35.078125 -26.078125 C 34.671875 -30.710938 33.488281 -34.09375 31.53125 -36.21875 C 29.582031 -38.351562 26.773438 -39.421875 23.109375 -39.421875 C 19.554688 -39.421875 16.742188 -38.234375 14.671875 -35.859375 C 12.597656 -33.492188 11.476562 -30.234375 11.3125 -26.078125 Z M 35.078125 -26.078125 "/></g></g></g></svg>